<?xml version="1.0" standalone="no"?>
<!DOCTYPE svg PUBLIC "-//W3C//DTD SVG 20010904//EN"
 "http://www.w3.org/TR/2001/REC-SVG-20010904/DTD/svg10.dtd">
<svg version="1.0" xmlns="http://www.w3.org/2000/svg"
 width="134.000000pt" height="73.000000pt" viewBox="0 0 134.000000 73.000000"
 preserveAspectRatio="xMidYMid meet">
<metadata>
Created by potrace 1.15, written by Peter Selinger 2001-2017
</metadata>
<g transform="translate(0.000000,73.000000) scale(0.100000,-0.100000)"
fill="#000000" stroke="none">
<path d="M1045 550 c-10 -11 -24 -20 -32 -20 -7 0 -13 -4 -13 -10 0 -5 -3 -9
-7 -8 -5 1 -25 -2 -45 -6 -21 -5 -59 -9 -85 -10 -45 -1 -48 -3 -51 -31 -5 -40
13 -98 38 -120 20 -18 21 -18 45 5 14 13 28 20 32 16 5 -5 -2 -15 -14 -23 -31
-21 -29 -30 12 -43 49 -16 105 -4 148 31 52 43 49 59 -13 59 -27 0 -50 4 -50
9 0 5 28 7 61 5 l61 -4 -4 55 c-4 53 -29 104 -54 112 -6 2 -19 -6 -29 -17z"/>
<path d="M0 295 l0 -265 69 0 c65 0 69 1 73 25 5 24 3 25 -43 25 l-49 0 0 240
0 240 -25 0 -25 0 0 -265z"/>
<path d="M140 538 c0 -13 9 -88 20 -168 11 -80 26 -188 33 -240 11 -86 14 -95
32 -92 11 2 21 5 22 6 1 1 16 109 33 241 17 132 33 248 36 258 4 13 -1 17 -20
17 -27 0 -25 6 -46 -137 -5 -39 -10 -94 -10 -122 0 -103 -17 -55 -35 99 -19
155 -20 160 -42 160 -17 0 -23 -6 -23 -22z"/>
<path d="M340 295 l0 -264 53 6 c76 8 86 22 88 122 1 60 -2 85 -12 91 -9 6
-10 12 -1 22 9 11 16 138 13 231 -2 34 -38 57 -91 57 l-50 0 0 -265z"/>
<path d="M510 295 c0 -154 4 -265 9 -265 37 0 41 12 41 111 0 92 1 99 20 99
11 0 29 9 40 20 18 18 20 33 20 138 0 146 -8 162 -81 162 l-49 0 0 -265z"/>
<path d="M832 217 c-6 -7 -14 -32 -18 -55 -15 -92 21 -151 72 -117 21 14 24
23 24 81 0 36 -5 74 -10 85 -12 22 -52 25 -68 6z"/>
<path d="M930 130 c0 -83 2 -98 15 -94 9 4 15 24 17 57 l4 52 8 -43 c5 -23 13
-45 17 -48 5 -3 18 14 29 38 l20 43 -4 -48 c-2 -26 0 -50 5 -53 13 -8 17 12
22 109 3 78 2 87 -14 87 -18 0 -39 -51 -39 -92 0 -31 -16 -19 -28 21 -7 21
-12 46 -12 55 0 9 -8 16 -20 16 -19 0 -20 -7 -20 -100z"/>
</g>
</svg>
